<svg width="24" height="24" viewBox="0 0 24 24" fill="none" xmlns="http://www.w3.org/2000/svg">
<path fill-rule="evenodd" clip-rule="evenodd" d="M21.9376 5.07001C21.0932 4.22271 19.9463 3.74646 18.7501 3.74646C17.5539 3.74646 16.407 4.22271 15.5626 5.07001L16.6276 6.13501C17.3872 5.37537 18.4944 5.0787 19.5321 5.35675C20.5698 5.63479 21.3803 6.44532 21.6584 7.483C21.9364 8.52068 21.6397 9.62787 20.8801 10.3875L14.8801 16.3875C14.1218 17.1471 13.0158 17.4445 11.9788 17.1676C10.9418 16.8908 10.1313 16.0817 9.85259 15.0451C9.57387 14.0086 9.8693 12.9021 10.6276 12.1425L11.6851 11.0775L10.6276 10.0125L9.5626 11.0775C8.7153 11.9219 8.23905 13.0688 8.23905 14.265C8.23905 15.4612 8.7153 16.6081 9.5626 17.4525C10.4112 18.2903 11.5577 18.7569 12.7501 18.75C13.951 18.7549 15.104 18.2797 15.9526 17.43L21.9526 11.43C23.7032 9.66897 23.6965 6.82277 21.9376 5.07001V5.07001ZM3.1426 18.615C2.57697 18.052 2.25898 17.2868 2.25898 16.4888C2.25898 15.6907 2.57697 14.9255 3.1426 14.3625L9.1426 8.36251C9.7056 7.79688 10.4708 7.47889 11.2688 7.47889C12.0669 7.47889 12.8321 7.79688 13.3951 8.36251C13.9573 8.93013 14.2658 9.70122 14.2501 10.5C14.2547 11.3011 13.9388 12.0707 13.3726 12.6375L11.7826 14.25L12.8476 15.315L14.4376 13.725C16.2001 11.9625 16.2001 9.10499 14.4376 7.34251C12.6751 5.58003 9.81758 5.58003 8.0551 7.34251L2.0551 13.3425C1.2055 14.1872 0.727783 15.3357 0.727783 16.5338C0.727783 17.7318 1.2055 18.8804 2.0551 19.725C2.90922 20.5564 4.05827 21.0149 5.2501 21C6.45243 21.0012 7.60639 20.5266 8.4601 19.68L7.3951 18.615C6.83209 19.1806 6.06692 19.4986 5.26885 19.4986C4.47078 19.4986 3.7056 19.1806 3.1426 18.615V18.615Z" fill="black"/>
</svg>
