<svg width="24" height="24" viewBox="0 0 24 24" fill="none" xmlns="http://www.w3.org/2000/svg">
<path fill-rule="evenodd" clip-rule="evenodd" d="M14.25 1.5H9.75V3H14.25V1.5ZM19.935 5.69249L21 6.74999L19.1325 8.61749C21.3408 12.404 20.1828 17.2576 16.5028 19.6393C12.8228 22.021 7.9207 21.0895 5.37083 17.524C2.82095 13.9585 3.52399 9.01838 6.96733 6.3058C10.4107 3.59321 15.378 4.06625 18.2475 7.37999L19.935 5.69249ZM5.24998 12.75C5.24998 16.4779 8.27206 19.5 12 19.5C15.7279 19.5 18.75 16.4779 18.75 12.75C18.75 9.02207 15.7279 5.99999 12 5.99999C8.27206 5.99999 5.24998 9.02207 5.24998 12.75ZM11.25 8.25H12.75V15H11.25V8.25Z" fill="black"/>
</svg>
